<?xml version="1.0" encoding="UTF-8"?><svg id="Layer_2" xmlns="http://www.w3.org/2000/svg" viewBox="0 0 251.68 251.68"><defs><style>.cls-1{fill:#d7263d;}.cls-2{fill:#fbb13c;}</style></defs><g id="Layer_1-2"><g><rect class="cls-1" width="251.68" height="251.68" rx="26.29" ry="26.29"/><g><g><g><path class="cls-2" d="M73.44,158.05c3.13,0,6.26,1.19,8.64,3.58,4.77,4.77,4.77,12.51,0,17.28-2.39,2.39-5.51,3.58-8.64,3.58s-6.25-1.19-8.64-3.58c-4.77-4.77-4.77-12.51,0-17.28,2.39-2.39,5.51-3.58,8.64-3.58m0-10c-5.94,0-11.52,2.31-15.71,6.51-4.2,4.2-6.51,9.78-6.51,15.71s2.31,11.52,6.51,15.71c4.2,4.2,9.78,6.51,15.71,6.51s11.52-2.31,15.71-6.51c4.2-4.2,6.51-9.78,6.51-15.71s-2.31-11.52-6.51-15.71c-4.2-4.2-9.78-6.51-15.71-6.51h0Z"/><path class="cls-2" d="M167.59,63.91c3.13,0,6.26,1.19,8.64,3.58,4.77,4.77,4.77,12.51,0,17.28-2.39,2.39-5.51,3.58-8.64,3.58s-6.25-1.19-8.64-3.58c-4.77-4.77-4.77-12.51,0-17.28,2.39-2.39,5.51-3.58,8.64-3.58m0-10c-5.94,0-11.52,2.31-15.71,6.51-8.66,8.66-8.66,22.76,0,31.42,4.2,4.2,9.78,6.51,15.71,6.51s11.52-2.31,15.71-6.51c4.2-4.2,6.51-9.78,6.51-15.71s-2.31-11.52-6.51-15.71c-4.2-4.2-9.78-6.51-15.71-6.51h0Z"/></g><path class="cls-2" d="M85.73,70.76c4.52,0,9.04,1.72,12.48,5.17,6.89,6.89,6.89,18.07,0,24.96-3.45,3.45-7.96,5.17-12.48,5.17s-9.04-1.72-12.48-5.17c-6.89-6.89-6.89-18.07,0-24.96,3.45-3.45,7.96-5.17,12.48-5.17m0-10c-7.39,0-14.33,2.88-19.55,8.1-10.78,10.78-10.78,28.32,0,39.11,5.22,5.22,12.17,8.1,19.55,8.1s14.33-2.88,19.55-8.1c10.78-10.78,10.78-28.32,0-39.11-5.22-5.22-12.17-8.1-19.55-8.1h0Z"/><path class="cls-2" d="M163.27,148.31c4.52,0,9.04,1.72,12.48,5.17,6.89,6.89,6.89,18.07,0,24.96-3.45,3.45-7.96,5.17-12.48,5.17s-9.04-1.72-12.48-5.17c-6.89-6.89-6.89-18.07,0-24.96,3.45-3.45,7.96-5.17,12.48-5.17m0-10c-7.39,0-14.33,2.88-19.55,8.1-10.78,10.78-10.78,28.32,0,39.11,5.22,5.22,12.17,8.1,19.55,8.1s14.33-2.88,19.55-8.1c5.22-5.22,8.1-12.17,8.1-19.55s-2.88-14.33-8.1-19.55c-5.22-5.22-12.17-8.1-19.55-8.1h0Z"/><path class="cls-2" d="M124.5,102.22l24.96,24.96-24.96,24.96-24.96-24.96,24.96-24.96m0-10c-2.65,0-5.2,1.05-7.07,2.93l-24.96,24.96c-3.91,3.91-3.91,10.24,0,14.14l24.96,24.96c1.88,1.88,4.42,2.93,7.07,2.93s5.2-1.05,7.07-2.93l24.96-24.96c1.88-1.88,2.93-4.42,2.93-7.07s-1.05-5.2-2.93-7.07l-24.96-24.96c-1.88-1.88-4.42-2.93-7.07-2.93h0Z"/></g><g><path class="cls-2" d="M69.98,74.72c-1.27,0-2.53-.48-3.51-1.44l-16.64-16.38c-1.97-1.94-1.99-5.1-.06-7.07s5.1-1.99,7.07-.06l16.64,16.38c1.97,1.94,1.99,5.1,.06,7.07-.98,.99-2.27,1.49-3.56,1.49Z"/><path class="cls-2" d="M198.35,203.34c-1.29,0-2.58-.5-3.56-1.49l-16.56-16.8c-1.94-1.97-1.92-5.13,.05-7.07,1.97-1.94,5.13-1.91,7.07,.05l16.56,16.8c1.94,1.97,1.92,5.13-.05,7.07-.97,.96-2.24,1.44-3.51,1.44Z"/><path class="cls-2" d="M147.22,151.96c-1.28,0-2.56-.49-3.54-1.46l-4.25-4.25c-1.95-1.95-1.95-5.12,0-7.07,1.95-1.95,5.12-1.95,7.07,0l4.25,4.25c1.95,1.95,1.95,5.12,0,7.07-.98,.98-2.26,1.46-3.54,1.46Z"/><path class="cls-2" d="M109.51,114.25c-1.28,0-2.56-.49-3.54-1.46l-4.78-4.78c-1.95-1.95-1.95-5.12,0-7.07,1.95-1.95,5.12-1.95,7.07,0l4.78,4.78c1.95,1.95,1.95,5.12,0,7.07-.98,.98-2.26,1.46-3.54,1.46Z"/></g></g></g></g></svg>