<?xml version="1.0" encoding="UTF-8"?><svg id="Layer_2" xmlns="http://www.w3.org/2000/svg" viewBox="0 0 251.68 251.68"><defs><style>.cls-1{fill:#d7263d;}.cls-2{fill:#fbb13c;}</style></defs><g id="Layer_1-2"><g><rect class="cls-1" width="251.68" height="251.68" rx="26.29" ry="26.29"/><g><path class="cls-2" d="M195.71,126.61H55.98c-2.76,0-5-2.24-5-5v-8.94c0-35.19,28.63-63.82,63.82-63.82h22.08c35.19,0,63.82,28.63,63.82,63.82v8.94c0,2.76-2.24,5-5,5Zm-134.73-10H190.71v-3.94c0-29.68-24.15-53.82-53.82-53.82h-22.08c-29.68,0-53.82,24.15-53.82,53.82v3.94Z"/><path class="cls-2" d="M153.6,202.84h-55.51c-25.98,0-47.11-21.13-47.11-47.11v-6.4c0-2.76,2.24-5,5-5H195.71c2.76,0,5,2.24,5,5v6.4c0,25.98-21.13,47.11-47.11,47.11Zm-92.62-48.51v1.4c0,20.46,16.65,37.11,37.11,37.11h55.51c20.46,0,37.11-16.65,37.11-37.11v-1.4H60.98Z"/><path class="cls-2" d="M200.87,154.33H50.81c-9.39,0-17.03-7.64-17.03-17.03v-3.66c0-9.39,7.64-17.03,17.03-17.03H200.87c9.39,0,17.03,7.64,17.03,17.03v3.66c0,9.39-7.64,17.03-17.03,17.03ZM50.81,126.61c-3.88,0-7.03,3.15-7.03,7.03v3.66c0,3.88,3.15,7.03,7.03,7.03H200.87c3.88,0,7.03-3.15,7.03-7.03v-3.66c0-3.88-3.15-7.03-7.03-7.03H50.81Z"/><circle class="cls-2" cx="164.08" cy="81.84" r="4"/><circle class="cls-2" cx="111.08" cy="73.84" r="4"/><circle class="cls-2" cx="85.08" cy="98.84" r="4"/><circle class="cls-2" cx="140.08" cy="98.84" r="4"/></g></g></g></svg>