<?xml version="1.0" encoding="UTF-8"?><svg id="Layer_2" xmlns="http://www.w3.org/2000/svg" viewBox="0 0 251.68 251.68"><defs><style>.cls-1{fill:#d7263d;}.cls-2{fill:#fbb13c;}</style></defs><g id="Layer_1-2"><g><rect class="cls-1" width="251.68" height="251.68" rx="26.29" ry="26.29"/><g><path class="cls-2" d="M184.07,202.84H67.62c-9.76,0-17.7-8.85-17.7-19.72v-56.94c0-2.76,2.24-5,5-5s5,2.24,5,5v56.94c0,5.36,3.46,9.72,7.7,9.72h116.45c4.25,0,7.7-4.36,7.7-9.72V113.54c0-2.76,2.24-5,5-5s5,2.24,5,5v69.58c0,10.87-7.94,19.72-17.7,19.72Z"/><path class="cls-2" d="M161.76,168.07c-14.02,0-26.75-6.12-33.94-15.81-5.24,4.77-12.67,7.62-20.62,7.62-3.18,0-6.35-.46-9.34-1.35-4.87,5.9-12.9,9.54-21.58,9.54-14.31,0-25.79-9.46-26.34-21.62-.02-.17-.03-.34-.03-.52v-37.61c0-12.39,9-22.56,20.07-22.68l111.34-1.17h0c5.07-.08,9.86,1.96,13.61,5.67,4.34,4.3,6.84,10.5,6.84,17v26.86c0,.06,0,.11,0,.17,0,.07,0,.13,0,.2,0,18.57-17.95,33.69-40.01,33.69Zm-33.25-29.7c.08,0,.17,0,.25,0,1.95,.1,3.66,1.32,4.39,3.13,3.99,9.91,15.48,16.57,28.61,16.57,16.55,0,30.01-10.62,30.01-23.69v-.29c-.01-.14,0-.28,0-.42v-26.52c0-3.85-1.41-7.46-3.87-9.9-1.29-1.27-3.43-2.78-6.38-2.78-.03,0-.06,0-.09,0l-111.34,1.17c-5.61,.06-10.17,5.75-10.17,12.68v37.27c0,.07,0,.14,0,.21,.17,6.76,7.51,12.27,16.36,12.27,6.61,0,12.72-3.18,15.21-7.92,1.23-2.35,4.09-3.33,6.51-2.22,2.79,1.27,5.97,1.95,9.2,1.95,7.44,0,14.07-3.47,16.88-8.83,.87-1.65,2.58-2.68,4.43-2.68Z"/><path class="cls-2" d="M125.84,94.31c-12.53,0-22.73-10.2-22.73-22.73s10.2-22.73,22.73-22.73,22.73,10.2,22.73,22.73-10.2,22.73-22.73,22.73Zm0-35.46c-7.02,0-12.73,5.71-12.73,12.73s5.71,12.73,12.73,12.73,12.73-5.71,12.73-12.73-5.71-12.73-12.73-12.73Z"/></g></g></g></svg>