<?xml version="1.0" encoding="UTF-8"?><svg id="Layer_2" xmlns="http://www.w3.org/2000/svg" viewBox="0 0 251.68 251.68"><defs><style>.cls-1{fill:#d7263d;}.cls-2{fill:#fbb13c;}</style></defs><g id="Layer_1-2"><g><rect class="cls-1" width="251.68" height="251.68" rx="26.29" ry="26.29"/><g><path class="cls-2" d="M134.73,203.34h-17.77c-34.25,0-62.12-27.87-62.12-62.12v-6.41c0-2.76,2.24-5,5-5H191.84c2.76,0,5,2.24,5,5v6.41c0,34.25-27.87,62.12-62.12,62.12Zm-69.88-63.53v1.41c0,28.74,23.38,52.12,52.12,52.12h17.77c28.74,0,52.12-23.38,52.12-52.12v-1.41H64.84Z"/><g><path class="cls-2" d="M99.52,118.06c-1.24,0-2.48-.46-3.45-1.38-2-1.9-2.08-5.07-.18-7.07,7.66-8.05,7.66-14.92,0-22.97-11.27-11.85-11.27-24.9,0-36.75,1.91-2,5.07-2.08,7.07-.18,2,1.9,2.08,5.07,.18,7.07-7.66,8.05-7.66,14.92,0,22.97,11.27,11.85,11.27,24.9,0,36.75-.98,1.03-2.3,1.55-3.62,1.55Z"/><path class="cls-2" d="M151.32,118.06c-1.24,0-2.48-.46-3.45-1.38-2-1.9-2.08-5.07-.18-7.07,7.66-8.05,7.66-14.92,0-22.97-11.27-11.85-11.27-24.9,0-36.75,1.91-2,5.07-2.08,7.07-.18,2,1.9,2.08,5.07,.18,7.07-7.66,8.05-7.66,14.92,0,22.97,11.27,11.85,11.27,24.9,0,36.75-.98,1.03-2.3,1.55-3.62,1.55Z"/><path class="cls-2" d="M125.42,118.06c-1.24,0-2.48-.46-3.45-1.38-2-1.9-2.08-5.07-.18-7.07,7.66-8.05,7.66-14.92,0-22.97-11.27-11.85-11.27-24.9,0-36.75,1.9-2,5.07-2.08,7.07-.18,2,1.9,2.08,5.07,.18,7.07-7.66,8.05-7.66,14.92,0,22.97,11.27,11.85,11.27,24.9,0,36.75-.98,1.03-2.3,1.55-3.62,1.55Z"/></g></g></g></g></svg>